<?xml version="1.0" encoding="UTF-8"?>
<svg id="Logo" xmlns="http://www.w3.org/2000/svg" version="1.1" viewBox="0 0 141.73 141.73">
  <!-- Generator: Adobe Illustrator 29.8.1, SVG Export Plug-In . SVG Version: 2.1.1 Build 2)  -->
  <rect x="80.94" y="110.35" width="7.92" height="5.3" fill="#fac841"/>
  <rect x="92.94" y="110.35" width="7.92" height="5.3" fill="#fac841"/>
  <path d="M124.13,47.99c-.75-.46-11.73-7.3-7.94-18.35.23-.68.52-1.38.87-2.1h-4.98c-.88-2.25-2.41-4.18-4.36-5.55-1.96-1.36-4.34-2.16-6.9-2.16-5.13,0-9.5,3.2-11.26,7.71h-4.98c.35.71.64,1.41.87,2.09.56,1.62.8,3.15.8,4.58,0,8.35-8.1,13.39-8.74,13.78-.03,0-.04.02-.04.02v47.35h5.82l2.07,3.49h-3.96l-.71,2.38,1.7,5.71h18.98c1.12,0,2.34.92,2.73,2.07l2.27,6.64h12.31c0,2.22-.82,4.26-2.21,5.89,1.21.28,2.06.75,2.79,1.16.99.56,1.77,1,3.48,1,.57,0,1.03-.05,1.43-.13V48.01s-.01,0-.04-.02ZM100.75,29.82c2.61,0,4.73,2.12,4.73,4.73s-2.12,4.73-4.73,4.73-4.73-2.12-4.73-4.73,2.12-4.73,4.73-4.73ZM96.55,98.82h-6.35v-9.33h6.35v9.33ZM96.55,83.82h-6.35v-9.33h6.35v9.33ZM96.55,68.68h-6.35v-9.33h6.35v9.33ZM111.3,98.82h-6.35v-9.33h6.35v9.33ZM111.3,83.82h-6.35v-9.33h6.35v9.33ZM111.3,68.68h-6.35v-9.33h6.35v9.33Z" fill="#fece30"/>
  <rect x="77.47" y="47.99" width="46.7" height="3.15" fill="#f28b0d"/>
  <path d="M85.22,26.49h3.24c2.27-4.72,6.98-7.71,12.29-7.71s10.02,2.99,12.29,7.71h4.59v3.15h-5.62c-.64,0-1.22-.39-1.46-.99-1.59-4.09-5.43-6.72-9.8-6.72s-8.21,2.63-9.79,6.7c-.02.05-.04.09-.06.13-.27.53-.81.87-1.41.87h-5.47l-.03-1.57v-1.55l1.22-.02s.01,0,.01,0Z" fill="#f28b0d"/>
  <polygon points="72.87 68.88 17.28 68.88 27.46 56.44 62.7 56.44 72.87 68.88" fill="#007ec3"/>
  <rect x="45.24" y="110.34" width="7.92" height="5.3" fill="#f08723"/>
  <rect x="57.14" y="110.34" width="7.92" height="5.3" fill="#f08723"/>
  <path d="M52.36,68.85h0l-7.29-8.97-7.3,8.96h-20.49v54.66c.46.12,1,.19,1.69.19,1.72,0,2.5-.44,3.49-1,1.13-.63,2.54-1.42,5.15-1.42.46,0,.88.02,1.27.07-1.3-1.6-2.06-3.57-2.06-5.7h12.31l2.27-6.64c.4-1.16,1.61-2.07,2.73-2.07h18.98l1.7-5.71-.71-2.38h-3.5l2.07-3.49h10.16v-26.51h-20.49.02ZM34.11,99.01h-6.35v-9.33h6.35v9.33ZM34.11,84.02h-6.35v-9.33h6.35v9.33ZM48.28,99.01h-6.35v-9.33h6.35v9.33ZM48.28,84.02h-6.35v-9.33h6.35v9.33ZM62.45,84.02h-6.35v-9.33h6.35v9.33Z" fill="#f28b0d"/>
  <rect x="69.04" y="99.81" width="3.81" height="5.3" fill="#f08723"/>
  <rect x="69.04" y="110.34" width="3.81" height="5.3" fill="#f08723"/>
  <circle cx="45.57" cy="30.61" r="11.26" fill="#fece30"/>
  <path d="M45.57,14.23c-9.05,0-16.38,7.33-16.38,16.38s7.33,16.38,16.38,16.38,16.38-7.33,16.38-16.38-7.33-16.38-16.38-16.38ZM56.82,31.11c0,.11,0,.22-.02.33-.04.52-.11,1.03-.22,1.53-.05.26-.11.53-.19.78,0,.02,0,.03-.02.05-.05.18-.1.35-.17.52-.04.15-.1.29-.16.43-.05.15-.11.29-.18.43-.06.15-.13.31-.21.46-.2.4-.42.79-.67,1.16-.17.26-.35.51-.54.75-.09.12-.19.25-.3.36-.15.18-.3.36-.46.52l-.15.15c-.11.11-.23.23-.35.34-.17.15-.35.31-.53.45-.18.15-.37.3-.56.43-.13.09-.26.18-.39.26-.13.09-.26.17-.4.25-.27.17-.55.32-.84.45-.17.09-.33.16-.5.23-.13.06-.26.11-.39.15-.3.13-.61.23-.93.31-.37.11-.75.2-1.13.26-.22.04-.43.07-.65.09-.42.06-.85.08-1.29.08-.32,0-.64,0-.96-.05-.16,0-.32-.02-.47-.05-.15-.02-.31-.04-.46-.07h-.06c-.13-.02-.27-.04-.4-.08-.29-.05-.58-.13-.85-.21-.18-.05-.19-.05-.02,0,.25.08-.05,0-.07-.02-.14-.04-.28-.08-.41-.14-.15-.04-.3-.1-.44-.16-.29-.1-.57-.23-.84-.37-.26-.12-.51-.25-.75-.41-.02,0-.05-.03-.07-.04-.17-.1-.33-.2-.5-.32-.22-.14-.43-.3-.64-.46-.12-.09-.25-.19-.36-.3-.17-.14-.33-.28-.48-.42l-.27-.27c-.2-.2-.38-.4-.56-.62-.22-.25-.42-.51-.61-.78-.08-.12-.16-.23-.23-.35-.1-.14-.19-.29-.27-.44-.08-.12-.15-.25-.21-.38-.12-.21-.22-.43-.32-.64-.1-.22-.2-.45-.28-.67-.06-.15-.11-.3-.16-.46-.05-.13-.09-.27-.13-.4,0-.04-.02-.08-.03-.12-.04-.14-.08-.29-.11-.43-.05-.22-.1-.43-.13-.65-.03-.15-.06-.31-.07-.46-.02-.11-.03-.21-.04-.32-.02-.17-.03-.34-.04-.51,0-.21-.02-.43-.02-.64v-.49c0-.11,0-.22.02-.33.02-.22.04-.44.07-.66,0-.1.03-.2.04-.3.03-.2.07-.39.11-.58.06-.28.13-.55.21-.82.05-.18.1-.35.17-.52.04-.15.1-.3.16-.44.05-.14.11-.28.18-.42.06-.15.13-.31.21-.46.13-.27.27-.53.43-.78.09-.16.19-.31.3-.47.1-.15.2-.3.32-.45.1-.15.22-.29.34-.43.11-.15.24-.28.36-.42.12-.13.24-.26.37-.39q.09-.09.02-.02c.25-.25.51-.48.78-.71.14-.11.28-.23.42-.33.15-.11.29-.21.44-.32.15-.1.3-.2.46-.29.15-.09.31-.18.47-.27.12-.07.24-.13.36-.19.12-.06.25-.12.38-.18.12-.06.24-.11.37-.16.13-.06.26-.1.39-.15.17-.06.34-.12.52-.17.21-.07.41-.13.62-.18h0c.15-.04.3-.07.45-.1.18-.04.35-.07.53-.1.03,0,.06-.01.08-.01.17-.02.34-.04.51-.06.19-.02.38-.04.57-.05.29-.02.58-.03.87-.01h.09c.07,0,.14,0,.2.01.58.03,1.14.11,1.69.22.15.03.29.06.44.1.06.01.12.03.19.04.03.01.06.02.09.03.24.07.48.14.71.22.41.14.8.31,1.18.49.17.08.33.16.49.25,0,0,0,.01.02.01.27.15.54.3.79.47.19.13.38.26.56.4.14.11.28.22.42.33.28.23.55.48.8.73s.5.52.73.8c.16.2.33.41.49.63.04.06.09.12.13.18,0,.02.03.04.04.06.09.15.19.3.28.45.13.21.25.43.37.66.11.22.22.45.32.68.09.21.17.41.25.62,0,.02.02.05.03.07v.02c.05.12.09.24.12.36.04.12.07.24.11.36.05.16.09.32.13.48.03.12.05.23.08.35,0,.04,0,.07.02.11v.02c.03.13.05.26.07.39.03.19.05.38.07.57.02.17.03.34.04.51,0,.21.02.43.02.64v.49h0v-.02Z" fill="#f28b0d"/>
  <path d="M44.92,124.58c1.72,0,2.92.34,3.87.76h-7.74c.95-.42,2.15-.76,3.87-.76Z" fill="#fff"/>
  <path d="M62.22,124.58c1.72,0,2.92.34,3.87.76h-7.74c.95-.42,2.15-.76,3.87-.76Z" fill="#fff"/>
  <path d="M96.79,124.58c1.72,0,2.92.34,3.87.76h-7.74c.95-.42,2.15-.76,3.87-.76Z" fill="#fff"/>
  <path d="M79.5,124.58c1.72,0,2.92.34,3.86.76h-7.72c.52-.23,1.11-.44,1.83-.58.58-.11,1.26-.18,2.03-.18Z" fill="#fff"/>
  <rect x="45.24" y="110.34" width="7.92" height="5.3" fill="#fff"/>
  <rect x="57.14" y="110.34" width="7.92" height="5.3" fill="#fff"/>
  <rect x="69.04" y="110.34" width="7.92" height="5.3" fill="#fff"/>
  <rect x="69.04" y="99.81" width="7.92" height="5.3" fill="#fff"/>
  <rect x="80.94" y="110.35" width="7.92" height="5.3" fill="#fff"/>
  <rect x="92.94" y="110.35" width="7.92" height="5.3" fill="#fff"/>
  <rect x="45.24" y="110.34" width="7.92" height="5.3" fill="#007ec3"/>
  <rect x="57.14" y="110.34" width="7.92" height="5.3" fill="#007ec3"/>
  <rect x="69.04" y="110.34" width="7.92" height="5.3" fill="#007ec3"/>
  <rect x="80.94" y="110.35" width="7.92" height="5.3" fill="#007ec3"/>
  <rect x="92.94" y="110.35" width="7.92" height="5.3" fill="#007ec3"/>
  <rect x="69.04" y="99.81" width="7.92" height="5.3" fill="#007ec3"/>
  <path d="M131.39,124.58v3.43c-1.71,0-2.5.43-3.49.99-1.14.63-2.55,1.43-5.16,1.43s-4.02-.8-5.16-1.43c-.99-.56-1.77-.99-3.49-.99s-2.5.43-3.49.99c-1.14.63-2.55,1.43-5.16,1.43s-4.02-.8-5.16-1.43c-.99-.56-1.77-.99-3.49-.99s-2.5.43-3.49.99c-1.14.63-2.55,1.43-5.16,1.43s-4.02-.8-5.16-1.43c-.99-.56-1.77-.99-3.48-.99s-2.49.43-3.48.99c-1.14.63-2.55,1.43-5.16,1.43s-4.02-.8-5.15-1.43c-.99-.56-1.77-.99-3.49-.99s-2.5.43-3.49.99c-1.13.63-2.55,1.43-5.16,1.43s-4.03-.8-5.16-1.43c-.99-.56-1.77-.99-3.49-.99s-2.5.43-3.49.99c-1.14.63-2.55,1.43-5.16,1.43s-4.02-.8-5.16-1.43c-.99-.56-1.77-.99-3.48-.99s-2.49.43-3.48.99c-1.13.63-2.55,1.43-5.16,1.43s-4.03-.8-5.17-1.43c-.99-.56-1.77-.99-3.48-.99v-3.43c2.61,0,4.02.79,5.16,1.42.59.34,1.11.63,1.8.81.46.12,1,.19,1.69.19,1.72,0,2.5-.44,3.49-1,1.13-.63,2.54-1.42,5.15-1.42s4.02.79,5.16,1.42c.99.56,1.77,1,3.48,1s2.49-.44,3.48-.99c.39-.22.81-.46,1.3-.67.95-.42,2.15-.76,3.87-.76s2.92.34,3.87.76c.49.21.91.45,1.29.66.99.56,1.77,1,3.49,1s2.5-.44,3.49-1c.38-.21.8-.45,1.29-.66.95-.42,2.15-.76,3.87-.76s2.92.34,3.87.76c.49.21.91.45,1.29.67.99.55,1.77.99,3.48.99.85,0,1.46-.11,1.99-.28.54-.18.99-.44,1.49-.72.39-.21.81-.45,1.3-.66.52-.23,1.11-.44,1.83-.58.58-.11,1.26-.18,2.03-.18,1.72,0,2.92.34,3.86.76.49.21.91.45,1.3.66.99.56,1.77,1,3.48,1s2.49-.44,3.48-1c.39-.21.81-.45,1.3-.66.95-.42,2.15-.76,3.87-.76s2.92.34,3.87.76c.49.21.91.45,1.3.66.99.56,1.77,1,3.48,1s2.49-.44,3.48-.99c1.14-.64,2.56-1.43,5.17-1.43s4.03.79,5.17,1.42c.99.56,1.77,1,3.48,1,.57,0,1.03-.05,1.43-.13.82-.17,1.4-.49,2.06-.87,1.14-.63,2.55-1.42,5.16-1.42h0Z" fill="#007ec3"/>
  <rect x="831.72" y="430.1" width="7.6" height="5.09" fill="#fece30"/>
  <rect x="843.24" y="430.1" width="7.6" height="5.09" fill="#fece30"/>
  <path d="M873.18,370.23c-.72-.44-11.26-7.01-7.62-17.62.22-.65.5-1.32.84-2.02h-4.78c-.84-2.16-2.31-4.01-4.19-5.33-1.88-1.31-4.17-2.07-6.62-2.07-4.93,0-9.12,3.07-10.81,7.4h-4.78c.34.68.61,1.35.84,2.01.54,1.56.77,3.02.77,4.4,0,8.02-7.78,12.86-8.39,13.23-.03,0-.04.02-.04.02v45.46h5.59l1.99,3.35h-3.8l-.68,2.29,1.63,5.48h18.22c1.08,0,2.25.88,2.62,1.99l2.18,6.37h11.82c0,2.13-.79,4.09-2.12,5.65,1.16.27,1.98.72,2.68,1.11.95.54,1.7.96,3.34.96.55,0,.99-.05,1.37-.12v-72.54s0,0-.04-.02ZM850.73,352.78c2.51,0,4.54,2.04,4.54,4.54s-2.04,4.54-4.54,4.54-4.54-2.04-4.54-4.54,2.04-4.54,4.54-4.54ZM846.7,419.03h-6.1v-8.96h6.1v8.96ZM846.7,404.63h-6.1v-8.96h6.1v8.96ZM846.7,390.09h-6.1v-8.96h6.1v8.96ZM860.86,419.03h-6.1v-8.96h6.1v8.96ZM860.86,404.63h-6.1v-8.96h6.1v8.96ZM860.86,390.09h-6.1v-8.96h6.1v8.96Z" fill="#fece30"/>
  <rect x="828.38" y="370.23" width="44.84" height="3.02" fill="#f28b0d"/>
  <path d="M835.82,349.59h3.11c2.18-4.53,6.7-7.4,11.8-7.4s9.62,2.87,11.8,7.4h4.41v3.02h-5.4c-.61,0-1.17-.37-1.4-.95-1.53-3.93-5.21-6.45-9.41-6.45s-7.88,2.53-9.4,6.43c-.02.05-.04.09-.06.12-.26.51-.78.84-1.35.84h-5.25l-.03-1.51v-1.49l1.17-.02h0Z" fill="#f28b0d"/>
  <polygon points="823.97 390.29 770.6 390.29 780.37 378.34 814.2 378.34 823.97 390.29" fill="#007ec3"/>
  <rect x="797.44" y="430.09" width="7.6" height="5.09" fill="#f28b0d"/>
  <rect x="808.87" y="430.09" width="7.6" height="5.09" fill="#f28b0d"/>
  <path d="M804.28,390.26h0s-7-8.61-7-8.61l-7.01,8.6h0s-19.67,0-19.67,0v52.48c.44.12.96.18,1.62.18,1.65,0,2.4-.42,3.35-.96,1.08-.6,2.44-1.36,4.94-1.36.44,0,.84.02,1.22.07-1.25-1.54-1.98-3.43-1.98-5.47h11.82l2.18-6.37c.38-1.11,1.55-1.99,2.62-1.99h18.22l1.63-5.48-.68-2.29h-3.36l1.99-3.35h9.75v-25.45h-19.67ZM786.75,419.21h-6.1v-8.96h6.1v8.96ZM786.75,404.82h-6.1v-8.96h6.1v8.96ZM800.36,419.21h-6.1v-8.96h6.1v8.96ZM800.36,404.82h-6.1v-8.96h6.1v8.96ZM813.96,404.82h-6.1v-8.96h6.1v8.96Z" fill="#f28b0d"/>
  <rect x="820.29" y="419.98" width="3.66" height="5.09" fill="#f28b0d"/>
  <rect x="820.29" y="430.09" width="3.66" height="5.09" fill="#f28b0d"/>
  <circle cx="797.76" cy="353.55" r="10.81" fill="#fece30"/>
  <path d="M797.76,337.82c-8.69,0-15.73,7.04-15.73,15.73s7.04,15.73,15.73,15.73,15.73-7.04,15.73-15.73-7.04-15.73-15.73-15.73ZM808.56,354.02c0,.11,0,.21-.02.32-.04.5-.11.99-.21,1.47-.05.25-.11.51-.18.75,0,.02,0,.03-.02.05-.05.17-.1.34-.16.5-.04.14-.1.28-.15.41-.05.14-.11.28-.17.41-.06.14-.12.3-.2.44-.19.38-.4.76-.64,1.11-.16.25-.34.49-.52.72-.09.12-.18.24-.29.35-.14.17-.29.35-.44.5-.05.05-.1.1-.14.14-.11.11-.22.22-.34.33-.16.14-.34.3-.51.43-.17.14-.36.29-.54.41-.12.09-.25.17-.37.25-.12.09-.25.16-.38.24-.26.16-.53.31-.81.43-.16.09-.32.15-.48.22-.12.06-.25.11-.37.14-.29.12-.59.22-.89.3-.36.11-.72.19-1.08.25-.21.04-.41.07-.62.09-.4.06-.82.08-1.24.08-.31,0-.61,0-.92-.05-.15,0-.31-.02-.45-.05-.14-.02-.3-.04-.44-.07-.02,0-.04,0-.06,0-.12-.02-.26-.04-.38-.08-.28-.05-.56-.12-.82-.2t-.02,0s-.05,0-.07-.02c-.13-.04-.27-.08-.39-.13-.14-.04-.29-.1-.42-.15-.28-.1-.55-.22-.81-.36-.25-.12-.49-.24-.72-.39-.02,0-.05-.03-.07-.04-.16-.1-.32-.19-.48-.31-.21-.13-.41-.29-.61-.44-.12-.09-.24-.18-.35-.29-.16-.13-.32-.27-.46-.4-.09-.09-.17-.17-.26-.26-.19-.19-.36-.38-.54-.6-.21-.24-.4-.49-.59-.75-.08-.12-.15-.22-.22-.34-.1-.13-.18-.28-.26-.42-.08-.12-.14-.24-.2-.36-.12-.2-.21-.41-.31-.61-.1-.21-.19-.43-.27-.64-.06-.14-.11-.29-.15-.44-.05-.12-.09-.26-.12-.38,0-.04-.02-.08-.03-.12-.04-.13-.08-.28-.11-.41-.05-.21-.1-.41-.12-.62-.03-.14-.06-.3-.07-.44-.02-.11-.03-.2-.04-.31-.02-.16-.03-.33-.04-.49,0-.2-.02-.41-.02-.61,0-.15,0-.32,0-.47,0-.11,0-.21.02-.32.02-.21.04-.42.07-.63,0-.1.03-.19.04-.29.03-.19.07-.37.11-.56.06-.27.12-.53.2-.79.05-.17.1-.34.16-.5.04-.14.1-.29.15-.42.05-.13.11-.27.17-.4.06-.14.12-.3.2-.44.12-.26.26-.51.41-.75.09-.15.18-.3.29-.45.1-.14.19-.29.31-.43.1-.14.21-.28.33-.41.11-.14.23-.27.35-.4.12-.12.23-.25.36-.37t.02-.02c.24-.24.49-.46.75-.68.13-.11.27-.22.4-.32.14-.11.28-.2.42-.31.14-.1.29-.19.44-.28.14-.09.3-.17.45-.26.12-.07.23-.12.35-.18.12-.06.24-.12.36-.17.12-.06.23-.11.36-.15.12-.06.25-.1.37-.14.16-.06.33-.12.5-.16.2-.07.39-.12.6-.17h0c.14-.04.29-.07.43-.1.17-.04.34-.07.51-.1.03,0,.06,0,.08,0,.16-.02.33-.04.49-.06.18-.02.36-.04.55-.05.28-.02.56-.03.84,0h.09c.07,0,.13,0,.19,0,.56.03,1.09.11,1.62.21.14.03.28.06.42.1.06,0,.12.03.18.04.03,0,.06.02.09.03.23.07.46.13.68.21.39.13.77.3,1.13.47.16.08.32.15.47.24,0,0,0,0,.02,0,.26.14.52.29.76.45.18.12.36.25.54.38.13.11.27.21.4.32.27.22.53.46.77.7s.48.5.7.77c.15.19.32.39.47.6.04.06.09.12.12.17,0,.02.03.04.04.06.09.14.18.29.27.43.12.2.24.41.36.63.11.21.21.43.31.65.09.2.16.39.24.6,0,.02.02.05.03.07v.02c.05.12.09.23.12.35.04.12.07.23.11.35.05.15.09.31.12.46.03.12.05.22.08.34,0,.04,0,.07.02.11v.02c.03.12.05.25.07.37.03.18.05.36.07.55.02.16.03.33.04.49,0,.2.02.41.02.61,0,.15,0,.32,0,.47Z" fill="#f28b0d"/>
  <path d="M797.13,443.76c1.65,0,2.8.33,3.72.73h-7.43c.91-.4,2.06-.73,3.72-.73Z" fill="#fff"/>
  <path d="M813.74,443.76c1.65,0,2.8.33,3.72.73h-7.43c.91-.4,2.06-.73,3.72-.73Z" fill="#fff"/>
  <path d="M846.93,443.76c1.65,0,2.8.33,3.72.73h-7.43c.91-.4,2.06-.73,3.72-.73Z" fill="#fff"/>
  <path d="M830.33,443.76c1.65,0,2.8.33,3.71.73h-7.41c.5-.22,1.07-.42,1.76-.56.56-.11,1.21-.17,1.95-.17Z" fill="#fff"/>
  <rect x="797.44" y="430.09" width="7.6" height="5.09" fill="#fff"/>
  <rect x="808.87" y="430.09" width="7.6" height="5.09" fill="#fff"/>
  <rect x="820.29" y="430.09" width="7.6" height="5.09" fill="#fff"/>
  <rect x="820.29" y="419.98" width="7.6" height="5.09" fill="#fff"/>
  <rect x="831.72" y="430.1" width="7.6" height="5.09" fill="#fff"/>
  <rect x="843.24" y="430.1" width="7.6" height="5.09" fill="#fff"/>
  <rect x="797.44" y="430.09" width="7.6" height="5.09" fill="#007ec3"/>
  <rect x="808.87" y="430.09" width="7.6" height="5.09" fill="#007ec3"/>
  <rect x="820.29" y="430.09" width="7.6" height="5.09" fill="#007ec3"/>
  <rect x="831.72" y="430.1" width="7.6" height="5.09" fill="#007ec3"/>
  <rect x="843.24" y="430.1" width="7.6" height="5.09" fill="#007ec3"/>
  <rect x="820.29" y="419.98" width="7.6" height="5.09" fill="#007ec3"/>
  <path d="M880.15,443.76v3.29c-1.64,0-2.4.41-3.35.95-1.09.6-2.45,1.37-4.95,1.37s-3.86-.77-4.95-1.37c-.95-.54-1.7-.95-3.35-.95s-2.4.41-3.35.95c-1.09.6-2.45,1.37-4.95,1.37s-3.86-.77-4.95-1.37c-.95-.54-1.7-.95-3.35-.95s-2.4.41-3.35.95c-1.09.6-2.45,1.37-4.95,1.37s-3.86-.77-4.95-1.37c-.95-.54-1.7-.95-3.34-.95s-2.39.41-3.34.95c-1.09.6-2.45,1.37-4.95,1.37s-3.86-.77-4.94-1.37c-.95-.54-1.7-.95-3.35-.95s-2.4.41-3.35.95c-1.08.6-2.45,1.37-4.95,1.37s-3.87-.77-4.95-1.37c-.95-.54-1.7-.95-3.35-.95s-2.4.41-3.35.95c-1.09.6-2.45,1.37-4.95,1.37s-3.86-.77-4.95-1.37c-.95-.54-1.7-.95-3.34-.95s-2.39.41-3.34.95c-1.08.6-2.45,1.37-4.95,1.37s-3.87-.77-4.96-1.37c-.95-.54-1.7-.95-3.34-.95v-3.29c2.51,0,3.86.76,4.95,1.36.57.33,1.07.6,1.73.78.44.12.96.18,1.62.18,1.65,0,2.4-.42,3.35-.96,1.08-.6,2.44-1.36,4.94-1.36s3.86.76,4.95,1.36c.95.54,1.7.96,3.34.96s2.39-.42,3.34-.95c.37-.21.78-.44,1.25-.64.91-.4,2.06-.73,3.72-.73s2.8.33,3.72.73c.47.2.87.43,1.24.63.95.54,1.7.96,3.35.96s2.4-.42,3.35-.96c.36-.2.77-.43,1.24-.63.91-.4,2.06-.73,3.72-.73s2.8.33,3.72.73c.47.2.87.43,1.24.64.95.53,1.7.95,3.34.95.82,0,1.4-.11,1.91-.27.52-.17.95-.42,1.43-.69.37-.2.78-.43,1.25-.63.5-.22,1.07-.42,1.76-.56.56-.11,1.21-.17,1.95-.17,1.65,0,2.8.33,3.71.73.47.2.87.43,1.25.63.95.54,1.7.96,3.34.96s2.39-.42,3.34-.96c.37-.2.78-.43,1.25-.63.91-.4,2.06-.73,3.72-.73s2.8.33,3.72.73c.47.2.87.43,1.25.63.95.54,1.7.96,3.34.96s2.39-.42,3.34-.95c1.09-.61,2.46-1.37,4.96-1.37s3.87.76,4.96,1.36c.95.54,1.7.96,3.34.96.55,0,.99-.05,1.37-.12.79-.16,1.34-.47,1.98-.84,1.09-.6,2.45-1.36,4.95-1.36Z" fill="#007ec3"/>
</svg>