<?xml version="1.0" encoding="UTF-8"?>
<svg id="Logo" xmlns="http://www.w3.org/2000/svg" version="1.1" viewBox="0 0 340.16 340.16">
  <!-- Generator: Adobe Illustrator 29.8.1, SVG Export Plug-In . SVG Version: 2.1.1 Build 2)  -->
  <path d="M187.06,137.26v84.07h8.01l2.61,4.44h-4.99l-.89,3.03,2.14,7.28h23.93c1.4,0,2.94,1.17,3.44,2.63l2.86,8.47h15.52c0,3.89-1.97,7.35-5.06,9.61.73-.29,1.38-.65,2.08-1.06,1.99-1.12,4.47-2.52,9.04-2.52s7.05,1.4,9.04,2.52c1.73.99,3.1,1.76,6.11,1.76.13,0,.26,0,.38,0v-120.22h-74.22ZM217.22,219.54h-11.12v-16.34h11.12v16.34ZM217.22,193.28h-11.12v-16.33h11.12v16.33ZM217.22,166.78h-11.12v-16.34h11.12v16.34ZM243.03,219.54h-11.12v-16.34h11.12v16.34ZM243.03,193.28h-11.12v-16.33h11.12v16.33ZM243.03,166.78h-11.12v-16.34h11.12v16.34Z" fill="#fff"/>
  <path d="M129.11,70.88c-15.84,0-28.68,12.84-28.68,28.68s12.84,28.68,28.68,28.68,28.68-12.84,28.68-28.68-12.84-28.68-28.68-28.68ZM129.11,119.28c-10.89,0-19.72-8.83-19.72-19.72s8.83-19.71,19.72-19.71,19.71,8.82,19.71,19.71-8.82,19.72-19.71,19.72Z" fill="#fff"/>
  <path d="M248.6,104.28h2.29v-5h-7.29c-3.61-7.49-11.1-12.25-19.53-12.25s-15.93,4.76-19.53,12.25h-5.16l-1.94.04v2.47l.04,2.5h2.26c6.02,17.61-11.5,28.5-12.62,29.18h74.1c-1.12-.68-18.65-11.57-12.62-29.19h0ZM224.06,119.62c-4.15,0-7.52-3.37-7.52-7.52s3.37-7.53,7.52-7.53,7.53,3.38,7.53,7.53-3.38,7.52-7.53,7.52Z" fill="#fff"/>
  <path d="M260.9,269.28c-4.57,0-7.05-1.39-9.04-2.51-1.73-.97-3.1-1.74-6.1-1.74s-4.37.77-6.1,1.74c-1.99,1.12-4.47,2.51-9.04,2.51s-7.05-1.39-9.04-2.51c-1.73-.97-3.1-1.74-6.1-1.74s-4.37.77-6.1,1.74c-1.99,1.12-4.47,2.51-9.04,2.51s-7.05-1.39-9.04-2.51c-1.73-.97-3.1-1.74-6.1-1.74s-4.37.77-6.1,1.74c-1.99,1.12-4.47,2.51-9.04,2.51s-7.05-1.39-9.04-2.51c-1.73-.97-3.1-1.74-6.1-1.74s-4.37.77-6.1,1.74c-1.99,1.12-4.47,2.51-9.04,2.51s-7.05-1.39-9.04-2.51c-1.73-.97-3.1-1.74-6.1-1.74s-4.37.77-6.1,1.74c-1.99,1.12-4.47,2.51-9.04,2.51s-7.04-1.39-9.03-2.51c-1.73-.97-3.1-1.74-6.1-1.74s-4.37.77-6.1,1.74c-1.99,1.12-4.47,2.51-9.03,2.51s-7.04-1.39-9.04-2.51c-1.73-.97-3.1-1.74-6.1-1.74v-6c4.57,0,7.05,1.39,9.04,2.51,1.73.97,3.1,1.74,6.1,1.74s4.37-.77,6.1-1.74c1.99-1.12,4.47-2.51,9.04-2.51s7.04,1.39,9.03,2.51c1.73.97,3.1,1.74,6.1,1.74s4.37-.77,6.1-1.74c1.99-1.12,4.47-2.51,9.04-2.51s7.05,1.39,9.04,2.51c1.73.97,3.1,1.74,6.1,1.74s4.37-.77,6.1-1.74c1.99-1.12,4.47-2.51,9.04-2.51s7.05,1.39,9.04,2.51c1.73.97,3.1,1.74,6.1,1.74s4.37-.77,6.1-1.74c1.99-1.12,4.47-2.51,9.04-2.51s7.05,1.39,9.04,2.51c1.73.97,3.1,1.74,6.1,1.74s4.37-.77,6.1-1.74c1.99-1.12,4.47-2.51,9.04-2.51s7.05,1.39,9.04,2.51c1.73.97,3.1,1.74,6.1,1.74s4.37-.77,6.1-1.74c1.99-1.12,4.47-2.51,9.04-2.51s7.05,1.39,9.04,2.51c1.73.97,3.1,1.74,6.11,1.74s4.37-.77,6.1-1.74c1.99-1.12,4.47-2.51,9.04-2.51v6c-3,0-4.37.77-6.11,1.74-1.99,1.12-4.47,2.51-9.04,2.51h-.01Z" fill="#fff"/>
  <rect x="147.07" y="240.6" width="9.99" height="6.68" fill="#fff"/>
  <rect x="162.08" y="240.6" width="9.99" height="6.68" fill="#fff"/>
  <rect x="177.09" y="240.59" width="9.99" height="6.68" fill="#fff"/>
  <rect x="192.09" y="240.6" width="9.99" height="6.68" fill="#fff"/>
  <rect x="207.23" y="240.59" width="9.99" height="6.68" fill="#fff"/>
  <rect x="177.09" y="227.31" width="9.99" height="6.68" fill="#fff"/>
  <g>
    <rect x="122.92" y="203.2" width="11.12" height="16.34" fill="none"/>
    <rect x="98.11" y="176.95" width="11.11" height="16.33" fill="none"/>
    <rect x="122.92" y="176.95" width="11.12" height="16.33" fill="none"/>
    <rect x="98.11" y="203.2" width="11.11" height="16.34" fill="none"/>
    <rect x="147.73" y="176.95" width="11.12" height="16.33" fill="none"/>
    <rect x="147.73" y="203.2" width="11.12" height="16.34" fill="none"/>
    <path d="M140.09,167.91h-.03v-.04l-11.58-14.22-11.58,14.24v.02h-37.1v89.57c2.62-.09,3.92-.81,5.54-1.73,1.99-1.11,4.47-2.5,9.04-2.5s7.04,1.39,9.03,2.5c1.73.98,3.1,1.74,6.1,1.74s4.37-.76,6.1-1.74c1.99-1.11,4.47-2.5,9.04-2.5.35,0,.67.02,1,.04-1.11-1.78-1.76-3.82-1.76-6.01h15.53l2.86-8.38c.5-1.45,2.03-2.6,3.44-2.6h23.93l2.14-7.21-.89-3h-4.41l2.6-4.4h7.96v-53.78h-36.96ZM109.22,219.54h-11.11v-16.34h11.11v16.34ZM109.22,193.28h-11.11v-16.33h11.11v16.33ZM134.04,219.54h-11.12v-16.34h11.12v16.34ZM134.04,193.28h-11.12v-16.33h11.12v16.33ZM147.73,176.95h11.12v16.33h-11.12v-16.33ZM147.73,203.2h11.12v16.34h-11.12v-16.34Z" fill="#fff"/>
    <polygon points="128.48 148.9 141.51 164.9 175.55 164.9 159.28 145 97.58 145 81.3 164.91 115.45 164.91 128.48 148.9" fill="#fff"/>
    <polygon points="116.9 167.91 116.9 167.89 116.88 167.91 116.9 167.91" fill="#fff"/>
  </g>
</svg>