<?xml version="1.0" encoding="UTF-8"?>
<svg id="Logo" xmlns="http://www.w3.org/2000/svg" version="1.1" viewBox="0 0 566.93 248.73">
  <!-- Generator: Adobe Illustrator 29.8.1, SVG Export Plug-In . SVG Version: 2.1.1 Build 2)  -->
  <circle cx="111.11" cy="48.94" r="19.72" transform="translate(-8.27 26.84) rotate(-13.28)" fill="#fece30"/>
  <path d="M243.28,87.84h-74.22v83.22h8.01l2.61,4.4h-4.99l-.89,3,2.14,7.21h23.93c1.4,0,2.94,1.15,3.44,2.6l2.86,8.38h15.52c0,3.85-1.97,7.28-5.06,9.52.73-.29,1.38-.65,2.08-1.05,1.99-1.11,4.47-2.5,9.04-2.5s7.05,1.39,9.04,2.5c1.73.98,3.1,1.74,6.11,1.74.13,0,.26,0,.38-.01v-119.01ZM199.22,168.92h-11.12v-16.34h11.12v16.34ZM199.22,142.66h-11.12v-16.33h11.12v16.33ZM199.22,116.16h-11.12v-16.34h11.12v16.34ZM225.03,168.92h-11.12v-16.34h11.12v16.34ZM225.03,142.66h-11.12v-16.33h11.12v16.33ZM225.03,116.16h-11.12v-16.34h11.12v16.34Z" fill="#fece30"/>
  <path d="M230.6,53.66h-6.64c-1.02,0-1.95-.63-2.33-1.58-2.52-6.49-8.63-10.67-15.57-10.67s-13.05,4.18-15.56,10.65c-.03.07-.06.14-.09.21-.42.85-1.29,1.39-2.24,1.39h-6.43c6.02,17.62-11.5,28.51-12.62,29.18h74.11c-1.12-.67-18.65-11.57-12.62-29.18ZM206.06,69c-4.15,0-7.52-3.37-7.52-7.52s3.37-7.53,7.52-7.53,7.53,3.38,7.53,7.53-3.38,7.52-7.53,7.52Z" fill="#fece30"/>
  <path d="M111.11,20.26c-15.84,0-28.68,12.84-28.68,28.68s12.84,28.68,28.68,28.68,28.68-12.84,28.68-28.68-12.84-28.68-28.68-28.68ZM111.11,68.66c-10.89,0-19.72-8.83-19.72-19.72s8.83-19.72,19.72-19.72,19.72,8.83,19.72,19.72-8.83,19.72-19.72,19.72Z" fill="#f28b0d"/>
  <path d="M190.42,52.28c.03-.07.07-.14.09-.21,2.51-6.47,8.62-10.65,15.56-10.65s13.05,4.18,15.57,10.67c.38.95,1.3,1.58,2.33,1.58h8.93v-5h-7.3c-3.61-7.5-11.1-12.25-19.53-12.25s-15.92,4.75-19.53,12.25h-5.16s-1.94.04-1.94.04v2.46l.04,2.5c.17,0,1.79,0,1.91,0h.35s6.43,0,6.43,0c.95,0,1.82-.54,2.24-1.39Z" fill="#f28b0d"/>
  <polygon points="243.28 82.88 243.28 82.84 243.22 82.84 169.12 82.84 169.06 82.84 169.06 87.84 169.06 87.84 243.28 87.84 243.28 82.88" fill="#f28b0d"/>
  <path d="M159.05,171.07v-54.95h-35.87l.02-.03-12.77-15.69-12.77,15.69.02.03h-35.88v90.74c2.62-.09,3.92-.81,5.54-1.73,1.99-1.11,4.47-2.5,9.04-2.5s7.04,1.39,9.03,2.5c1.73.98,3.1,1.74,6.1,1.74s4.37-.76,6.1-1.74c1.99-1.11,4.47-2.5,9.04-2.5.35,0,.67.02,1,.04-1.11-1.78-1.76-3.82-1.76-6.01h15.53l2.86-8.38c.5-1.45,2.03-2.6,3.44-2.6h23.93l2.14-7.21-.89-3h-4.41l2.6-4.4h7.96ZM91.22,168.92h-11.11v-16.34h11.11v16.34ZM91.22,142.66h-11.11v-16.33h11.11v16.33ZM116.04,168.92h-11.12v-16.34h11.12v16.34ZM116.04,142.66h-11.12v-16.33h11.12v16.33ZM140.85,168.92h-11.12v-16.34h11.12v16.34ZM140.85,142.66h-11.12v-16.33h11.12v16.33Z" fill="#f28b0d"/>
  <path d="M290.18,165.73c.51-.6,3.83-4.39,4.85-5.92.77-1.15,1.66-2.9,1.66-4.56,0-2.55-1.83-4.3-4.22-4.3-2.9,0-4.43,2.3-4.51,4.73h-5.71c.26-5.79,4.34-9.5,9.97-9.5,6.6,0,10.01,4.51,10.01,9.03s-2.94,7.54-5.15,9.92l-4.9,5.32h10.26v4.77h-20.61l8.35-9.5Z" fill="#f28b0d"/>
  <path d="M337.45,161.05c0,8.65-6.22,14.82-15.16,14.82s-15.16-6.17-15.16-14.82,6.22-14.86,15.16-14.86,15.16,6.22,15.16,14.86ZM331.75,161.05c0-5.75-3.92-9.84-9.45-9.84s-9.45,4.09-9.45,9.84,3.92,9.79,9.45,9.79,9.45-4.05,9.45-9.79Z" fill="#f28b0d"/>
  <path d="M349.85,165.73c.51-.6,3.83-4.39,4.86-5.92.77-1.15,1.66-2.9,1.66-4.56,0-2.55-1.83-4.3-4.22-4.3-2.9,0-4.43,2.3-4.51,4.73h-5.71c.26-5.79,4.34-9.5,9.97-9.5,6.6,0,10.01,4.51,10.01,9.03s-2.94,7.54-5.15,9.92l-4.9,5.32h10.26v4.77h-20.61l8.35-9.5Z" fill="#f28b0d"/>
  <path d="M382.6,148.23l-6.9,8.99c.85-.38,1.87-.68,3.11-.68,2.09,0,4.6.81,6.26,2.43,1.49,1.41,2.68,3.83,2.68,6.81,0,2.38-.68,4.77-2.6,6.86-2.43,2.64-5.2,3.24-8.09,3.24s-5.75-.55-8.09-2.9c-1.53-1.53-2.77-3.71-2.77-6.9,0-3.45,1.58-6.22,3.58-8.86l8.35-11.16,4.47,2.17ZM380.68,169.99c.68-.68,1.53-1.87,1.53-3.75,0-1.7-.6-2.98-1.58-3.92-1.06-1.02-2.26-1.36-3.66-1.36-1.66,0-2.77.55-3.71,1.53-1.02,1.06-1.53,2.13-1.53,3.71s.51,2.85,1.58,3.83c.72.68,1.96,1.41,3.66,1.41,1.79,0,2.98-.72,3.71-1.45Z" fill="#f28b0d"/>
  <path d="M297.44,109.77c-1.64-2.19-3.58-2.4-4.6-2.4-2.95,0-3.88,1.86-3.88,3.29,0,.67.21,1.31.89,1.9.67.63,1.6.97,3.37,1.6,2.19.76,4.26,1.52,5.69,2.82,1.27,1.14,2.4,3.04,2.4,5.9,0,5.48-3.96,9.23-9.78,9.23-5.19,0-8.22-3.16-9.7-5.31l3.58-3.42c1.35,2.74,3.92,3.75,5.9,3.75,2.49,0,4.34-1.52,4.34-3.88,0-1.01-.34-1.81-1.1-2.53-1.05-.97-2.74-1.52-4.34-2.07-1.48-.51-3.25-1.18-4.68-2.45-.93-.8-2.24-2.36-2.24-5.23,0-4.13,2.78-8.27,9.02-8.27,1.77,0,5.1.34,7.97,3.29l-2.87,3.75Z" fill="#007ec3"/>
  <path d="M314.56,108.09v23.4h-5.48v-23.4h-6.33v-4.72h18.13v4.72h-6.32Z" fill="#007ec3"/>
  <path d="M351.79,117.45c0,8.56-6.16,14.67-15.01,14.67s-15.01-6.11-15.01-14.67,6.16-14.72,15.01-14.72,15.01,6.16,15.01,14.72ZM346.14,117.45c0-5.69-3.88-9.74-9.36-9.74s-9.36,4.05-9.36,9.74,3.88,9.7,9.36,9.7,9.36-4.01,9.36-9.7Z" fill="#007ec3"/>
  <path d="M377.26,130.48c-1.69.89-3.92,1.64-6.96,1.64-4.93,0-7.93-1.69-10.29-3.92-3.25-3.12-4.51-6.62-4.51-10.75,0-5.1,2.11-8.77,4.51-11.01,2.83-2.66,6.33-3.71,10.33-3.71,1.98,0,4.34.34,6.92,1.73v6.41c-2.57-2.95-5.78-3.16-6.79-3.16-5.65,0-9.32,4.64-9.32,9.83,0,6.24,4.81,9.61,9.53,9.61,2.61,0,4.93-1.14,6.58-3.08v6.41Z" fill="#007ec3"/>
  <path d="M387.81,115.26l10.33-11.89h6.92l-11.89,12.99,12.52,15.14h-7.25l-9.99-12.61-.63.63v11.98h-5.48v-28.13h5.48v11.89Z" fill="#007ec3"/>
  <path d="M414.63,114.25h11.89v-10.88h5.48v28.13h-5.48v-12.52h-11.89v12.52h-5.48v-28.13h5.48v10.88Z" fill="#007ec3"/>
  <path d="M467.09,117.45c0,8.56-6.16,14.67-15.01,14.67s-15.01-6.11-15.01-14.67,6.16-14.72,15.01-14.72,15.01,6.16,15.01,14.72ZM461.44,117.45c0-5.69-3.88-9.74-9.36-9.74s-9.36,4.05-9.36,9.74,3.88,9.7,9.36,9.7,9.36-4.01,9.36-9.7Z" fill="#007ec3"/>
  <path d="M477.63,103.37v23.4h8.69v4.72h-14.17v-28.13h5.48Z" fill="#007ec3"/>
  <path d="M493.91,103.37h3.96l7.46,17.88,7.8-17.88h3.96l4.72,28.13h-5.57l-2.53-17.33-7.55,17.33h-1.85l-7.21-17.33-2.87,17.33h-5.57l5.23-28.13Z" fill="#007ec3"/>
  <polygon points="123.18 116.12 123.2 116.09 110.43 100.4 97.66 116.09 97.68 116.12 61.8 116.12 79.58 94.38 141.28 94.38 159.05 116.12 123.18 116.12" fill="#007ec3"/>
  <path d="M242.9,218.66c-4.57,0-7.05-1.39-9.04-2.51-1.73-.97-3.1-1.74-6.1-1.74s-4.37.77-6.1,1.74c-1.99,1.12-4.47,2.51-9.04,2.51s-7.05-1.39-9.04-2.51c-1.73-.97-3.1-1.74-6.1-1.74s-4.37.77-6.1,1.74c-1.99,1.12-4.47,2.51-9.04,2.51s-7.05-1.39-9.04-2.51c-1.73-.97-3.1-1.74-6.1-1.74s-4.37.77-6.1,1.74c-1.99,1.12-4.47,2.51-9.04,2.51s-7.05-1.39-9.04-2.51c-1.73-.97-3.1-1.74-6.1-1.74s-4.37.77-6.1,1.74c-1.99,1.12-4.47,2.51-9.04,2.51s-7.05-1.39-9.04-2.51c-1.73-.97-3.1-1.74-6.1-1.74s-4.37.77-6.1,1.74c-1.99,1.12-4.47,2.51-9.04,2.51s-7.04-1.39-9.03-2.51c-1.73-.97-3.1-1.74-6.1-1.74s-4.37.77-6.1,1.74c-1.99,1.12-4.47,2.51-9.03,2.51s-7.04-1.39-9.04-2.51c-1.73-.97-3.1-1.74-6.1-1.74v-6c4.57,0,7.05,1.39,9.04,2.51,1.73.97,3.1,1.74,6.1,1.74s4.37-.77,6.1-1.74c1.99-1.12,4.47-2.51,9.04-2.51s7.04,1.39,9.03,2.51c1.73.97,3.1,1.74,6.1,1.74s4.37-.77,6.1-1.74c1.99-1.12,4.47-2.51,9.04-2.51s7.05,1.39,9.04,2.51c1.73.97,3.1,1.74,6.1,1.74s4.37-.77,6.1-1.74c1.99-1.12,4.47-2.51,9.04-2.51s7.05,1.39,9.04,2.51c1.73.97,3.1,1.74,6.1,1.74s4.37-.77,6.1-1.74c1.99-1.12,4.47-2.51,9.04-2.51s7.05,1.39,9.04,2.51c1.73.97,3.1,1.74,6.1,1.74s4.37-.77,6.1-1.74c1.99-1.12,4.47-2.51,9.04-2.51s7.05,1.39,9.04,2.51c1.73.97,3.1,1.74,6.1,1.74s4.37-.77,6.1-1.74c1.99-1.12,4.47-2.51,9.04-2.51s7.05,1.39,9.04,2.51c1.73.97,3.1,1.74,6.11,1.74s4.37-.77,6.1-1.74c1.99-1.12,4.47-2.51,9.04-2.51v6c-3,0-4.37.77-6.11,1.74-1.99,1.12-4.47,2.51-9.04,2.51Z" fill="#007ec3"/>
  <rect x="130.73" y="188.32" width="6.68" height="9.99" transform="translate(-59.25 327.39) rotate(-90)" fill="#007ec3"/>
  <rect x="145.74" y="188.32" width="6.68" height="9.99" transform="translate(-44.24 342.4) rotate(-90)" fill="#007ec3"/>
  <rect x="160.74" y="188.32" width="6.68" height="9.99" transform="translate(-29.24 357.4) rotate(-90)" fill="#007ec3"/>
  <rect x="175.75" y="188.32" width="6.68" height="9.99" transform="translate(-14.23 372.41) rotate(-90)" fill="#007ec3"/>
  <rect x="190.88" y="188.32" width="6.68" height="9.99" transform="translate(.9 387.54) rotate(-90)" fill="#007ec3"/>
  <rect x="160.74" y="175.04" width="6.68" height="9.99" transform="translate(-15.95 344.12) rotate(-90)" fill="#007ec3"/>
</svg>